<?xml version="1.0" standalone="no"?>
<!DOCTYPE svg PUBLIC "-//W3C//DTD SVG 20010904//EN"
 "http://www.w3.org/TR/2001/REC-SVG-20010904/DTD/svg10.dtd">
<svg version="1.0" xmlns="http://www.w3.org/2000/svg"
 width="213.000000pt" height="213.000000pt" viewBox="0 0 213.000000 213.000000"
 preserveAspectRatio="xMidYMid meet">
<metadata>
Created by potrace 1.11, written by Peter Selinger 2001-2013
</metadata>
<g transform="translate(0.000000,213.000000) scale(0.100000,-0.100000)"
fill="#000000" stroke="none">
<path d="M1283 2114 c-7 -19 3 -1858 11 -1924 10 -82 24 -127 50 -157 22 -25
30 -28 88 -27 72 0 199 48 238 88 30 33 20 56 -48 106 -107 80 -158 140 -119
140 14 0 79 -39 186 -112 44 -31 79 -48 99 -48 39 0 121 55 197 133 188 192
125 327 -204 437 -112 38 -151 38 -220 0 -30 -17 -58 -30 -63 -30 -14 0 -9 26
12 52 44 57 194 67 338 22 48 -15 98 -29 112 -30 39 -5 103 31 122 68 51 97
48 300 -7 463 -60 178 -154 288 -309 363 -48 23 -89 49 -92 57 -4 9 10 36 34
68 23 29 43 66 46 82 18 99 -79 206 -222 245 -66 17 -242 21 -249 4z m281
-606 c67 -34 95 -57 120 -101 31 -53 60 -157 46 -171 -11 -11 -55 21 -128 95
-68 69 -103 127 -107 181 -4 52 5 70 19 39 5 -12 28 -32 50 -43z"/>
<path d="M505 2089 c-270 -64 -407 -184 -471 -415 -22 -79 -27 -260 -9 -349
46 -236 141 -381 463 -709 157 -159 327 -315 447 -411 28 -22 52 -42 55 -45
10 -10 126 -87 148 -99 13 -7 31 -14 41 -16 16 -3 17 51 16 906 l0 910 -60 55
c-152 139 -260 184 -450 189 -71 2 -123 -3 -180 -16z"/>
</g>
</svg>
